<?xml version="1.0" encoding="UTF-8"?>
<svg id="Layer_2" data-name="Layer 2" xmlns="http://www.w3.org/2000/svg" xmlns:xlink="http://www.w3.org/1999/xlink" viewBox="0 0 118.75 99.74">
  <defs>
    <style>
      .cls-1 {
        fill: url(#linear-gradient);
      }
    </style>
    <linearGradient id="linear-gradient" x1="0" y1="640.13" x2="118.75" y2="640.13" gradientTransform="translate(0 690) scale(1 -1)" gradientUnits="userSpaceOnUse">
      <stop offset="0" stop-color="#000"/>
      <stop offset="1" stop-color="#144b7f"/>
    </linearGradient>
  </defs>
  <g id="Layer_2-2" data-name="Layer 2">
    <g id="Layer_1-2" data-name="Layer 1-2">
      <path class="cls-1" d="M0,0H76.7c.92,.11,18.35,2.56,25.24,18.21,5.04,11.44,.98,22.06,.14,24.14,12.51,7.84,18.84,21.79,16,34.49-1.62,7.24-6.76,15.3-15.04,19.73-3.91,2.09-7.58,2.86-10.07,3.17h-21.11c-2.58-.38-8.45-1.59-14.07-6.21-6.25-5.14-8.5-11.47-9.24-13.93h41.25c4.21-.63,7.67-3.41,8.69-7.04,1.38-4.9-1.84-10.85-7.86-12.69H49.93c-2.33-.09-10.28-.69-17.23-6.9-5.53-4.94-7.47-10.79-8.14-13.24h51.18c4.75-.7,8.35-4.69,8.55-9.38,.21-4.9-3.33-9.33-8.28-10.21l-50.9,.14c-2.75-.36-9.31-1.61-15.59-6.76C3.46,8.54,.94,2.62,0,0Z"/>
    </g>
  </g>
</svg>